#define test_width 24
#define test_height 10
static char test_bits[] = {
  0x81, 0xFF, 0x03, 0xFF, 0x00, 0x00, 0x08, 0xC0, 0x03, 0x00, 
  0xC0, 0x00, 0x08, 0xD3, 0x37, 0x00, 0x00, 0xF8, 0xFF, 0xFF,
  0x00, 0xFF, 0xF0, 0x01, 0xa0, 0x00, 0xFF, 0xFF, 0xFF, 0xFF, };