#define test_width 8
#define test_height 3
static char test_bits[] = {
  0x03, 0xD1, 0x03, };